<?xml version="1.0" encoding="UTF-8" standalone="no"?>
<svg
   xmlns:dc="http://purl.org/dc/elements/1.1/"
   xmlns:cc="http://creativecommons.org/ns#"
   xmlns:rdf="http://www.w3.org/1999/02/22-rdf-syntax-ns#"
   xmlns:svg="http://www.w3.org/2000/svg"
   xmlns="http://www.w3.org/2000/svg"
   xmlns:sodipodi="http://sodipodi.sourceforge.net/DTD/sodipodi-0.dtd"
   xmlns:inkscape="http://www.inkscape.org/namespaces/inkscape"
   width="100mm"
   height="100mm"
   viewBox="0 0 100 100"
   version="1.1"
   id="svg8"
   inkscape:version="1.0.2-2 (e86c870879, 2021-01-15)"
   sodipodi:docname="logo_bov.svg">
  <defs
     id="defs2" />
  <sodipodi:namedview
     id="base"
     pagecolor="#ffffff"
     bordercolor="#666666"
     borderopacity="1.0"
     inkscape:pageopacity="0.0"
     inkscape:pageshadow="2"
     inkscape:zoom="0.35"
     inkscape:cx="206.51025"
     inkscape:cy="560"
     inkscape:document-units="mm"
     inkscape:current-layer="layer1"
     inkscape:document-rotation="0"
     showgrid="false"
     inkscape:window-width="1920"
     inkscape:window-height="1017"
     inkscape:window-x="1272"
     inkscape:window-y="-8"
     inkscape:window-maximized="1" />
  <metadata
     id="metadata5">
    <rdf:RDF>
      <cc:Work
         rdf:about="">
        <dc:format>image/svg+xml</dc:format>
        <dc:type
           rdf:resource="http://purl.org/dc/dcmitype/StillImage" />
        <dc:title></dc:title>
      </cc:Work>
    </rdf:RDF>
  </metadata>
  <g
     inkscape:label="Capa 1"
     inkscape:groupmode="layer"
     id="layer1">
    <g
       id="g102"
       transform="matrix(0.35714286,0,0,0.35714286,127.97194,8.09949)">
      <rect
         style="fill:#ff6600;fill-rule:evenodd;stroke-width:0.296182"
         id="rect10"
         width="280"
         height="280"
         x="-358.32144"
         y="-22.678572"
         ry="53.04348" />
      <path
         id="path12"
         style="fill:#ffffff;fill-rule:evenodd;stroke-width:0.251414"
         d="m -218.32145,7.3214256 a 109.99999,109.99999 0 0 0 -110,110.0000044 109.99999,109.99999 0 0 0 110,110 109.99999,109.99999 0 0 0 110.00001,-110 A 109.99999,109.99999 0 0 0 -218.32145,7.3214256 Z m -9.9999,20.5568834 V 206.76402 a 89.999999,89.999999 0 0 1 -79.99977,-89.44259 89.999999,89.999999 0 0 1 79.99977,-89.443121 z m 19.99981,5.19e-4 a 89.999999,89.999999 0 0 1 79.4427,79.442692 h -79.4427 z m 0,99.442502 h 79.4427 a 89.999999,89.999999 0 0 1 -79.4427,79.44322 z" />
    </g>
  </g>
</svg>
