<?xml version="1.0" encoding="UTF-8" standalone="no"?>
<!-- Created with Inkscape (http://www.inkscape.org/) -->

<svg
   width="400mm"
   height="100mm"
   viewBox="0 0 400 100"
   version="1.1"
   id="svg5"
   inkscape:version="1.1.1 (3bf5ae0d25, 2021-09-20)"
   sodipodi:docname="loguito.svg"
   xmlns:inkscape="http://www.inkscape.org/namespaces/inkscape"
   xmlns:sodipodi="http://sodipodi.sourceforge.net/DTD/sodipodi-0.dtd"
   xmlns="http://www.w3.org/2000/svg"
   xmlns:svg="http://www.w3.org/2000/svg">
  <sodipodi:namedview
     id="namedview7"
     pagecolor="#ffffff"
     bordercolor="#666666"
     borderopacity="1.0"
     inkscape:pageshadow="2"
     inkscape:pageopacity="0.0"
     inkscape:pagecheckerboard="0"
     inkscape:document-units="mm"
     showgrid="false"
     width="100mm"
     inkscape:zoom="0.42582772"
     inkscape:cx="1036.8043"
     inkscape:cy="454.40912"
     inkscape:window-width="1024"
     inkscape:window-height="705"
     inkscape:window-x="-8"
     inkscape:window-y="-8"
     inkscape:window-maximized="1"
     inkscape:current-layer="layer1" />
  <defs
     id="defs2" />
  <g
     inkscape:label="Capa 1"
     inkscape:groupmode="layer"
     id="layer1">
    <path
       id="path31"
       style="opacity:0.564103;fill:#ffffff;stroke-width:0.263469;image-rendering:auto"
       d="M 49.692437,8.0774968 A 38.508447,42.857707 0 0 0 11.184046,50.935145 38.508447,42.857707 0 0 0 49.692437,93.792785 38.508447,42.857707 0 0 0 88.201107,50.935145 38.508447,42.857707 0 0 0 49.692437,8.0774968 Z m -2.52843,6.4436102 V 87.349171 A 32.917714,36.635538 0 0 1 16.774803,50.935145 32.917714,36.635538 0 0 1 47.164007,14.521107 Z m 5.74362,0.06004 A 32.917714,36.635538 0 0 1 82.313895,46.740105 L 52.907627,46.929929 Z M 82.326826,54.944412 A 32.917714,36.635538 0 0 1 52.907627,87.289127 v -32.15488 z"
       inkscape:export-filename="C:\proyectos\bov\frontend\web\img\loguito.png"
       inkscape:export-xdpi="96"
       inkscape:export-ydpi="96" />
    <text
       xml:space="preserve"
       style="font-style:normal;font-weight:normal;font-size:35.5904px;line-height:1.25;font-family:sans-serif;fill:#ffffff;fill-opacity:1;stroke:none;stroke-width:0.264582"
       x="120.02637"
       y="50.029037"
       id="text2728"
       transform="scale(0.76845278,1.3013161)"><tspan
         sodipodi:role="line"
         id="tspan2726"
         style="stroke-width:0.264582;fill:#ffffff"
         x="120.02637"
         y="50.029037"><tspan
   style="font-style:normal;font-variant:normal;font-weight:normal;font-stretch:normal;font-size:35.5904px;font-family:'Bauhaus 93';-inkscape-font-specification:'Bauhaus 93, Normal';font-variant-ligatures:normal;font-variant-caps:normal;font-variant-numeric:normal;font-variant-east-asian:normal;stroke-width:0.264582;fill:#ffffff"
   id="tspan4926">BOV INGENIEROS SAC</tspan> </tspan></text>
  </g>
</svg>
